# xmcd
#
# Track frame offsets: 
#        150
#        10914
#        20409
#        39849
#        55746
#        67574
#        79225
#        91656
#        104315
#        118374
#        131014
#        144320
#
# Disc length: 2093 seconds
#
# Revision: 0
# Processed by: cddbd v1.5.2PL0 Copyright (c) Steve Scherf et al.
# Submitted via: ExactAudioCopy v0.95b4
#
DISCID=8e082b0c
DTITLE=Greatest Hits - Bill Anderson
DYEAR=1971
DGENRE=Country
TTITLE0=I Get The Fever
TTITLE1=Easy Come - Easy Go
TTITLE2=Golden Guitar
TTITLE3=Mama Sang A Song
TTITLE4=The Tip Of My Fingers
TTITLE5=Three A.M.
TTITLE6=I Love Your Drops
TTITLE7=Bright Lights And Country Music
TTITLE8=Five Little Fingers
TTITLE9=Still
TTITLE10=8 X 10
TTITLE11=Po Folks
EXTD=
EXTT0=
EXTT1=
EXTT2=
EXTT3=
EXTT4=
EXTT5=
EXTT6=
EXTT7=
EXTT8=
EXTT9=
EXTT10=
EXTT11=
PLAYORDER=
